<?xml version="1.0" encoding="UTF-8" standalone="no"?>
<!-- Created with Inkscape (http://www.inkscape.org/) -->

<svg
   version="1.1"
   id="svg2"
   width="720"
   height="720"
   viewBox="0 0 720 720"
   sodipodi:docname="void-animation-2s.svg"
   inkscape:version="1.4 (e7c3feb100, 2024-10-09)"
   xmlns:inkscape="http://www.inkscape.org/namespaces/inkscape"
   xmlns:sodipodi="http://sodipodi.sourceforge.net/DTD/sodipodi-0.dtd"
   xmlns="http://www.w3.org/2000/svg"
   xmlns:svg="http://www.w3.org/2000/svg">
  <style
     id="style1">
   @keyframes spin {
     100% { transform: rotate(360deg); }
   }

   @keyframes swing {
     10%   { transform: rotate(0deg); }
     45%  { transform: rotate(-180deg); }
     55%  { transform: rotate(-180deg); }
     90% { transform: rotate(0deg); }
   }

   @keyframes flash {
     50%  { opacity: 0.5; }
   }

   .letter {
      animation: flash 2s cubic-bezier(0.4, 0, 0.2, 1) infinite;
      animation-delay: -0.8s;
   }

   .center {
     transform-origin: center;
     transform-box: fill-box;
   }

   #ring3 {
      animation: spin 2s linear infinite reverse;
   }
   #ring2 {
      animation: spin 2s cubic-bezier(0.68, -0.55, 0.27, 1.55) infinite reverse;
      animation-delay: -0.5s;
   }
   #ring1{
      animation: swing 2s ease-in-out infinite;
   }
  </style>
  <defs
     id="defs6">
    <inkscape:path-effect
       effect="knot"
       id="path-effect29"
       is_visible="true"
       lpeversion="1"
       switcher_size="15"
       interruption_width="3"
       prop_to_stroke_width="true"
       add_stroke_width="inkscape_1.0_and_up"
       both="false"
       inverse_width="false"
       add_other_stroke_width="inkscape_1.0_and_up"
       crossing_points_vector="" />
    <clipPath
       clipPathUnits="userSpaceOnUse"
       id="clipPath20">
      <path
         d="M 0,2160 H 3840 V 0 H 0 Z"
         id="path18" />
    </clipPath>
    <clipPath
       clipPathUnits="userSpaceOnUse"
       id="clipPath30">
      <path
         d="M 0,2160 H 3840 V 0 H 0 Z"
         id="path28" />
    </clipPath>
    <clipPath
       clipPathUnits="userSpaceOnUse"
       id="clipPath46">
      <path
         d="M 1298.3,1701.85 H 2542.31 V 457.844 H 1298.3 Z"
         id="path44" />
    </clipPath>
    <clipPath
       clipPathUnits="userSpaceOnUse"
       id="clipPath86">
      <path
         d="M 676.494,2323.66 H 3164.51 V -164.353 H 676.494 Z"
         id="path84" />
    </clipPath>
    <clipPath
       clipPathUnits="userSpaceOnUse"
       id="clipPath106">
      <path
         d="M -567.512,3567.66 H 4408.51 V -1408.36 H -567.512 Z"
         id="path104" />
    </clipPath>
  </defs>
  <sodipodi:namedview
     id="namedview4"
     pagecolor="#505050"
     bordercolor="#eeeeee"
     borderopacity="1"
     inkscape:showpageshadow="0"
     inkscape:pageopacity="0"
     inkscape:pagecheckerboard="0"
     inkscape:deskcolor="#505050"
     showgrid="false"
     inkscape:zoom="1"
     inkscape:cx="329"
     inkscape:cy="348"
     inkscape:window-width="1248"
     inkscape:window-height="1053"
     inkscape:window-x="4"
     inkscape:window-y="23"
     inkscape:window-maximized="1"
     inkscape:current-layer="layer1">
    <inkscape:page
       x="0"
       y="0"
       id="page8"
       width="720"
       height="720"
       margin="0"
       bleed="0" />
  </sodipodi:namedview>
  <g
     id="g10"
     inkscape:groupmode="layer"
     inkscape:label="Page 1"
     transform="matrix(1.3333333,0,0,-1.3333333,0,2880)"
     style="display:inline">
    <path
       d="m 0,1620.0001 h 540.00001 v 540 H 0 Z"
       style="fill:#263238;fill-opacity:1;fill-rule:nonzero;stroke:none;stroke-width:0.1875"
       id="path12"
       inkscape:label="background" />
    <g
       inkscape:groupmode="layer"
       id="layer1"
       inkscape:label="void-logo">
      <g
         class="center"
         id="ring3">
      <g
         clip-path="url(#clipPath86)"
         opacity="0.0599976"
         id="g96"
         style="display:inline"
         transform="matrix(0.21195387,0,0,0.21195401,-137.0574,1661.1633)"
         inkscape:label="ring3">
        <path
           d="m 0,0 c -260.444,-0.553 -514.146,-82.834 -725.339,-235.245 l 282.559,-282.559 c 133.313,81.55 286.502,124.829 442.78,125.095 470.159,10e-4 851.298,-381.138 851.297,-851.297 -0.376,-156.222 -43.734,-309.328 -125.323,-442.552 l 283.095,-283.095 c 152.362,211.316 234.537,465.132 234.937,725.647 C 1244.006,-556.96 687.045,0 0,0"
           style="display:inline;fill:#abc2ab;fill-opacity:1;fill-rule:nonzero;stroke:none"
           id="path88"
           transform="translate(1920.5,2323.6587)" />
        <path
           d="m 0,0 -282.56,282.559 c -133.313,-81.55 -286.502,-124.83 -442.78,-125.095 -470.159,-0.001 -851.298,381.139 -851.297,851.297 0.376,156.222 43.733,309.329 125.323,442.552 l -283.095,283.095 c -152.362,-211.315 -234.537,-465.132 -234.937,-725.647 0,-687.045 556.961,-1244.006 1244.006,-1244.006 C -464.896,-234.691 -211.193,-152.41 0,0"
           style="display:inline;fill:#478061;fill-opacity:1;fill-rule:nonzero;stroke:none"
           id="path92"
           transform="translate(2645.8398,70.891577)" />
      </g>
      </g>
      <g
         class="center"
         id="ring2">
      <g
         clip-path="url(#clipPath46)"
         opacity="0.25"
         id="g56"
         style="display:inline"
         transform="matrix(0.21195387,0,0,0.21195401,-137.0574,1661.1633)"
         inkscape:label="ring2">
        <path
           d="m 0,0 -141.28,141.279 c -66.657,-40.775 -143.251,-62.415 -221.39,-62.548 -235.08,0 -425.649,190.57 -425.648,425.649 0.188,78.112 21.866,154.664 62.661,221.277 l -141.548,141.547 c -76.18,-105.658 -117.268,-232.566 -117.468,-362.824 0,-343.523 278.48,-622.002 622.003,-622.002 C -232.448,-117.346 -105.597,-76.205 0,0"
           style="display:inline;fill:#478061;fill-opacity:1;fill-rule:nonzero;stroke:none"
           id="path52"
           transform="translate(2282.9756,575.46676)" />
        <path
           d="m 0,0 c -130.222,-0.276 -257.073,-41.417 -362.67,-117.622 l 141.28,-141.28 c 66.657,40.775 143.251,62.415 221.39,62.548 235.079,0 425.648,-190.569 425.648,-425.649 -0.188,-78.111 -21.867,-154.664 -62.661,-221.276 l 141.547,-141.548 c 76.181,105.659 117.27,232.567 117.469,362.824 C 622.003,-278.48 343.522,0 0,0"
           style="display:inline;fill:#abc2ab;fill-opacity:1;fill-rule:nonzero;stroke:none"
           id="path48"
           transform="translate(1920.3057,1701.8501)" />
      </g>
      </g>
      <g
         class="center"
         id="ring1">
      <g
         id="g4"
         inkscape:label="ring1"
         transform="matrix(0.56249972,0,0,0.56249972,-269.99987,1215.0002)">
        <path
           d="m 1028.3661,1104.9736 -26.6177,26.6178 c -12.55854,-7.6825 -26.98911,-11.7595 -41.71059,-11.7848 -44.28991,0 -80.19397,35.9043 -80.19397,80.194 0.0354,14.7166 4.12001,29.1392 11.80574,41.6892 l -26.66814,26.6683 c -14.35259,-19.9065 -22.09371,-43.8164 -22.13102,-68.3575 0,-64.7206 52.46625,-117.1877 117.18739,-117.1877 24.53391,0.053 48.43329,7.8034 68.32829,22.1607"
           style="display:inline;fill:#478061;fill-opacity:1;fill-rule:nonzero;stroke:none;stroke-width:0.376807"
           id="path38" />
        <path
           d="m 960.03781,1317.1883 c -24.53429,-0.052 -48.43366,-7.803 -68.32831,-22.1605 l 26.61765,-26.6176 c 12.55822,7.6825 26.9888,11.759 41.71066,11.7842 44.28949,0 80.19369,-35.9041 80.19369,-80.1937 -0.036,-14.7166 -4.1197,-29.1394 -11.8058,-41.6893 l 26.6682,-26.6679 c 14.3524,19.9064 22.0935,43.8162 22.1312,68.3572 0,64.721 -52.4666,117.1876 -117.18729,117.1876"
           style="display:inline;fill:#abc2ab;fill-opacity:1;fill-rule:nonzero;stroke:none;stroke-width:0.376807"
           id="path34" />
      </g>
      </g>
      <path
         d="m 270.01056,1910.9862 c 11.59028,0 20.98619,-9.396 20.98619,-20.9862 0,-11.5904 -9.39591,-20.9862 -20.98619,-20.9862 -11.59027,0 -20.98619,9.3958 -20.98619,20.9862 0,11.5902 9.39592,20.9862 20.98619,20.9862"
         style="display:inline;fill:#abc2ab;fill-opacity:1;fill-rule:nonzero;stroke:none;stroke-width:0.211954"
         id="path62"
         inkscape:label="dot" />
      <path
         d="m 208.99146,1877.7388 c -0.71872,-0.5134 -1.37346,-0.77 -1.96398,-0.77 h -2.54154 c -0.35928,0 -0.64176,0.064 -0.84696,0.192 -0.2056,0.128 -0.37238,0.321 -0.50084,0.5776 l -13.01569,24.1834 c -0.0512,0.052 -0.0768,0.116 -0.0768,0.192 v 0.2312 c 0,0.2568 0.0898,0.462 0.26938,0.616 0.20558,0.18 0.52626,0.2696 0.96266,0.2696 h 15.82705 c 0.84718,0 1.3991,-0.2566 1.65578,-0.7702 l 8.00971,-15.4418 22.45037,15.4418 c 0.74442,0.5136 1.52736,0.7702 2.34888,0.7702 h 2.50296 c 0.33384,0 0.50086,-0.142 0.50086,-0.4236 0,-0.231 -0.2056,-0.5134 -0.61634,-0.8472 z"
         style="display:inline;fill:#000000;fill-opacity:1;fill-rule:nonzero;stroke:none;stroke-width:0.211954"
         id="path66"
         class="letter"
         inkscape:label="letter-v" />
      <path
         d="m 267.1016,1892.7186 c 0.84718,1.7972 1.27086,3.1448 1.27086,4.0436 0,0.7444 -0.2696,1.2578 -0.80882,1.5402 -0.51334,0.2824 -1.28358,0.4236 -2.31047,0.4236 h -5.2372 c -0.74436,0 -1.43748,-0.102 -2.07922,-0.308 -0.61618,-0.18 -1.19398,-0.5008 -1.73296,-0.9628 -0.53898,-0.462 -1.06548,-1.0782 -1.57888,-1.8484 -0.48792,-0.7702 -0.98832,-1.733 -1.50188,-2.8882 l -1.84826,-4.1974 c -0.9756,-2.1822 -1.46328,-3.8252 -1.46328,-4.929 0,-0.7444 0.21808,-1.2836 0.65446,-1.6172 0.43644,-0.3082 1.0655,-0.4622 1.88708,-0.4622 h 5.27552 c 0.79588,0 1.52752,0.116 2.19498,0.3466 0.66746,0.2568 1.30922,0.6546 1.92538,1.1936 0.61616,0.5392 1.20668,1.2582 1.77154,2.1566 0.56464,0.8986 1.14222,2.0026 1.73272,3.3116 z m -23.18202,-15.7498 c -1.33492,0 -2.51588,0.2054 -3.54262,0.6162 -1.0269,0.4362 -1.88702,1.0266 -2.58012,1.7712 -0.69306,0.7446 -1.21934,1.6174 -1.57884,2.6188 -0.35948,1.0266 -0.53898,2.1306 -0.53898,3.3118 0,1.5144 0.25644,3.0034 0.77,4.4668 0.5134,1.4634 1.2194,2.8624 2.1181,4.1974 0.92408,1.3348 2.00234,2.5672 3.2346,3.6966 1.25798,1.1296 2.6185,2.1052 4.08184,2.9268 1.48893,0.8214 3.05509,1.4632 4.69793,1.9254 1.64306,0.4876 3.32472,0.7316 5.04472,0.7316 h 18.86901 c 1.36052,0 2.55442,-0.2054 3.58114,-0.6162 1.05256,-0.4108 1.9254,-0.9884 2.61868,-1.7326 0.6931,-0.719 1.21938,-1.5792 1.57888,-2.5802 0.35926,-1.0012 0.53898,-2.0922 0.53898,-3.2732 0,-1.5146 -0.2696,-3.0166 -0.8086,-4.5056 -0.51338,-1.4632 -1.23232,-2.8624 -2.15644,-4.1972 -0.9243,-1.3352 -2.01522,-2.5802 -3.27342,-3.7354 -1.2577,-1.1294 -2.63138,-2.118 -4.12014,-2.965 -1.489,-0.8214 -3.05512,-1.4762 -4.69818,-1.9642 -1.64288,-0.462 -3.29887,-0.693 -4.96759,-0.693 z"
         style="display:inline;fill:#000000;fill-opacity:1;fill-rule:nonzero;stroke:none;stroke-width:0.211954"
         id="path70"
         class="letter"
         inkscape:label="letter-o" />
      <path
         d="m 280.10592,1876.9688 c -0.46226,0 -0.69328,0.154 -0.69328,0.462 0,0.154 0.0388,0.3464 0.1154,0.5776 l 10.82093,24.2218 c 0.30812,0.6674 0.79586,1.0012 1.46326,1.0012 h 13.24675 c 0.4879,0 0.73186,-0.166 0.73186,-0.5006 0,-0.154 -0.0518,-0.3208 -0.154,-0.5006 l -10.78233,-24.2218 c -0.30798,-0.693 -0.79588,-1.0396 -1.4633,-1.0396 z"
         style="display:inline;fill:#000000;fill-opacity:1;fill-rule:nonzero;stroke:none;stroke-width:0.211954"
         id="path74"
         class="letter"
         inkscape:label="letter-i" />
      <path
         d="m 332.54155,1892.7186 c 0.82132,1.8486 1.2321,3.1964 1.2321,4.0436 0,0.7444 -0.25644,1.2578 -0.77006,1.5402 -0.51334,0.2824 -1.25792,0.4236 -2.23334,0.4236 h -7.8173 l -7.62455,-17.2132 h 7.77845 c 0.77024,0 1.48916,0.116 2.15664,0.3466 0.66746,0.2568 1.29632,0.6546 1.88678,1.1936 0.61616,0.5648 1.20668,1.2838 1.77154,2.1566 0.59028,0.8986 1.1808,2.0026 1.77132,3.3116 z m -33.50202,-15.7498 c -0.46232,0 -0.69334,0.154 -0.69334,0.462 0,0.154 0.0388,0.3466 0.1156,0.5778 l 10.82085,24.2216 c 0.30798,0.6674 0.79588,1.0012 1.46334,1.0012 h 30.9605 c 1.33492,0 2.51572,-0.2054 3.54284,-0.6162 1.0269,-0.4108 1.8868,-0.9884 2.57992,-1.7326 0.69304,-0.719 1.21954,-1.5792 1.57882,-2.5802 0.3595,-1.0012 0.5392,-2.0922 0.5392,-3.2732 0,-1.566 -0.2696,-3.1064 -0.80858,-4.621 -0.53922,-1.489 -1.2838,-2.901 -2.23358,-4.236 -0.92436,-1.335 -2.0282,-2.5672 -3.31154,-3.6966 -1.2582,-1.1298 -2.63144,-2.1054 -4.12059,-2.9268 -1.46312,-0.7958 -3.00364,-1.4246 -4.62106,-1.887 -1.61718,-0.462 -3.23442,-0.693 -4.85184,-0.693 z"
         style="display:inline;fill:#000000;fill-opacity:1;fill-rule:nonzero;stroke:none;stroke-width:0.211954"
         id="path78"
         class="letter"
         inkscape:label="letter-d" />
    </g>
  </g>
</svg>
